<?xml version="1.0" standalone="no"?>
<!DOCTYPE svg PUBLIC "-//W3C//DTD SVG 20010904//EN"
 "http://www.w3.org/TR/2001/REC-SVG-20010904/DTD/svg10.dtd">
<svg version="1.0" xmlns="http://www.w3.org/2000/svg"
 width="600.000000pt" height="600.000000pt" viewBox="0 0 600.000000 600.000000"
 preserveAspectRatio="xMidYMid meet">

<g transform="translate(0.000000,600.000000) scale(0.100000,-0.100000)"
fill="#000000" stroke="none">
<path d="M0 3000 l0 -3000 3000 0 3000 0 0 3000 0 3000 -3000 0 -3000 0 0
-3000z m2505 2121 c42 -18 195 -167 912 -883 l862 -862 42 13 c23 7 74 15 114
18 136 10 237 -43 291 -152 l26 -55 57 53 c109 100 249 153 387 145 102 -7
150 -35 189 -113 27 -55 30 -70 33 -181 6 -174 -22 -310 -142 -703 -36 -116
-68 -228 -72 -248 l-7 -36 39 5 c21 3 88 24 148 47 60 22 115 41 122 41 21 0
36 -37 24 -59 -5 -11 -46 -47 -91 -81 -133 -100 -259 -155 -378 -166 -113 -11
-194 23 -231 95 -44 86 -37 180 35 473 71 286 82 428 33 428 -69 0 -179 -134
-228 -275 -11 -33 -34 -129 -51 -215 -17 -85 -32 -162 -35 -169 -3 -10 -14 -1
-32 27 l-28 41 -17 -81 c-22 -105 -62 -193 -101 -221 -45 -32 -142 -36 -178
-8 -57 45 -48 136 42 415 l58 180 -26 39 -26 39 -13 -39 c-8 -22 -31 -57 -53
-78 l-39 -38 14 45 c19 64 51 123 81 152 24 21 26 30 21 68 -9 67 -66 100
-107 63 -16 -15 -19 -13 -38 16 l-20 32 -35 -54 c-52 -81 -73 -138 -118 -303
-79 -298 -125 -407 -201 -484 -59 -60 -111 -82 -191 -82 -94 0 -107 14 -107
118 0 93 14 167 85 462 72 295 88 400 83 525 -6 131 -27 175 -95 202 l-48 18
65 6 c36 4 111 7 168 8 56 0 102 4 102 7 0 3 -12 21 -26 40 l-26 34 95 0 c85
0 99 -2 116 -21 25 -27 35 -84 26 -152 l-7 -52 55 60 55 60 -281 285 -282 285
-2 70 c-2 85 -28 161 -84 239 -23 32 -43 56 -45 54 -2 -3 5 -26 15 -54 73
-191 -9 -407 -189 -499 -97 -50 -185 -55 -329 -21 -124 30 -157 24 -218 -40
-81 -84 -212 -330 -398 -747 l-88 -197 -27 31 -26 32 -83 -189 c-96 -218 -230
-486 -265 -529 -23 -29 -24 -29 -50 -12 -114 75 -461 639 -866 1406 -117 222
-136 277 -107 315 14 19 15 19 59 -7 82 -48 187 -167 496 -566 261 -337 330
-411 386 -411 32 0 78 56 126 154 28 55 50 104 50 108 0 3 -12 20 -26 37 l-26
31 108 282 c131 345 195 495 281 658 183 350 347 479 608 480 l70 0 -250 249
c-217 216 -255 250 -288 256 -91 17 -70 36 -758 -652 l-637 -635 -51 40 c-28
22 -60 44 -71 47 -11 4 -20 9 -20 13 0 4 289 296 643 649 737 735 699 705 872
700 67 -3 103 -9 140 -26z m-1766 -1586 l33 -58 -196 -196 c-107 -108 -199
-209 -205 -224 -15 -39 -14 -93 3 -125 8 -15 441 -453 963 -974 889 -888 951
-947 989 -953 28 -4 54 -1 80 10 28 11 177 154 516 492 263 263 479 475 481
473 2 -3 11 -17 20 -32 10 -15 35 -37 57 -48 22 -11 40 -24 40 -28 0 -4 -222
-228 -493 -499 -557 -556 -522 -529 -684 -527 -155 1 -85 -60 -1154 1011
-1068 1070 -984 972 -984 1143 0 151 12 170 273 432 213 214 217 218 223 189
3 -16 21 -55 38 -86z m2419 -152 c99 -49 100 -110 7 -428 -90 -311 -118 -446
-113 -557 2 -72 7 -92 27 -118 23 -32 23 -32 -31 9 -30 22 -58 41 -62 41 -10
0 5 -52 25 -85 29 -50 114 -84 163 -66 15 6 12 11 -23 34 -23 15 -41 28 -41
30 0 1 17 3 38 3 21 1 57 11 80 23 53 27 59 27 77 -9 20 -39 19 -68 -5 -108
l-20 -33 -28 19 c-25 18 -29 19 -47 5 -41 -31 -173 -92 -253 -117 -46 -14
-129 -31 -183 -37 -89 -10 -102 -9 -126 6 -25 17 -26 19 -20 104 3 54 21 149
50 259 l45 172 -31 24 -30 24 42 189 c47 215 81 394 81 434 0 31 -8 34 -122
48 -51 6 -53 7 -56 39 -2 19 4 44 12 57 36 55 95 65 325 60 149 -4 191 -8 219
-22z"/>
<path d="M3924 3133 c-3 -16 -18 -78 -33 -140 l-27 -111 38 -10 c33 -9 40 -8
45 6 24 67 47 120 59 140 14 21 12 26 -26 82 -22 33 -43 60 -45 60 -3 0 -7
-12 -11 -27z"/>
</g>
</svg>
